<svg width="94" height="93" viewBox="0 0 94 93" fill="none" xmlns="http://www.w3.org/2000/svg">
<g clip-path="url(#clip0_0_21)">
<path fill-rule="evenodd" clip-rule="evenodd" d="M49.1859 37.2442H84.219C89.1842 36.7034 93.1383 32.4979 93.1383 27.3449C93.1383 22.6776 89.8962 18.6317 85.5955 17.7539C84.4178 8.02718 76.3339 0.424255 66.5289 0.424255C59.6333 0.424255 53.5889 4.11377 50.1975 9.70752C50.1137 9.7059 50.0304 9.68264 49.946 9.68264C42.6748 9.68264 36.7808 16.0076 36.7808 23.4634C36.7808 30.6575 42.2687 36.7034 49.1859 37.2442Z" fill="#2D6CB5"/>
<path fill-rule="evenodd" clip-rule="evenodd" d="M49.1859 37.2442H84.219C89.1842 36.7034 93.1383 32.4979 93.1383 27.3449C93.1383 22.6776 89.8962 18.6317 85.5955 17.7539C84.4178 8.02718 76.3339 0.424255 66.5289 0.424255C59.6333 0.424255 53.5889 4.11377 50.1975 9.70752C50.1137 9.7059 50.0304 9.68264 49.946 9.68264C42.6748 9.68264 36.7808 16.0076 36.7808 23.4634C36.7808 30.6575 42.2687 36.7034 49.1859 37.2442Z" fill="url(#paint0_linear_0_21)" fill-opacity="0.2"/>
<g filter="url(#filter0_d_0_21)">
<path fill-rule="evenodd" clip-rule="evenodd" d="M16.5304 52.0906H56.6324C64 52.0906 70.0014 45.9019 70.0014 38.5471C70.0014 32.3584 65.9375 27.1864 60.2221 25.501C60.0708 19.9858 55.5036 15.5832 49.8785 15.5832C48.2436 15.5832 46.7032 15.9799 45.328 16.6458C42.8955 10.9491 37.1857 6.95685 30.529 6.95685C23.2704 6.95685 17.1399 11.7164 15.1551 18.2429C6.57549 19.2657 0 26.3732 0 35.1167C0 44.2775 7.12599 52.0906 16.5304 52.0906Z" fill="white"/>
</g>
<ellipse cx="74.748" cy="53.2787" rx="4.7459" ry="7.12644" fill="#F5F5F5"/>
<ellipse cx="13.6445" cy="73.4702" rx="4.7459" ry="7.12644" fill="#F5F5F5"/>
<ellipse cx="38.5605" cy="61.2174" rx="2.37295" ry="3.56322" fill="#F5F5F5"/>
<ellipse cx="80.0871" cy="88.5354" rx="2.37295" ry="3.56322" fill="#F1F1F1"/>
</g>
<defs>
<filter id="filter0_d_0_21" x="-10" y="0.956848" width="90.0013" height="65.1338" filterUnits="userSpaceOnUse" color-interpolation-filters="sRGB">
<feFlood flood-opacity="0" result="BackgroundImageFix"/>
<feColorMatrix in="SourceAlpha" type="matrix" values="0 0 0 0 0 0 0 0 0 0 0 0 0 0 0 0 0 0 127 0" result="hardAlpha"/>
<feOffset dy="4"/>
<feGaussianBlur stdDeviation="5"/>
<feColorMatrix type="matrix" values="0 0 0 0 0 0 0 0 0 0 0 0 0 0 0 0 0 0 0.14 0"/>
<feBlend mode="normal" in2="BackgroundImageFix" result="effect1_dropShadow_0_21"/>
<feBlend mode="normal" in="SourceGraphic" in2="effect1_dropShadow_0_21" result="shape"/>
</filter>
<linearGradient id="paint0_linear_0_21" x1="36.7808" y1="0.424255" x2="36.7808" y2="37.2442" gradientUnits="userSpaceOnUse">
<stop stop-opacity="0.01"/>
<stop offset="1" stop-opacity="0.5"/>
</linearGradient>
<clipPath id="clip0_0_21">
<rect width="94" height="92" fill="white" transform="translate(0 0.424255)"/>
</clipPath>
</defs>
</svg>
