<svg width="47" height="64" viewBox="0 0 47 64" fill="none" xmlns="http://www.w3.org/2000/svg">
<g clip-path="url(#clip0_0_66)">
<path fill-rule="evenodd" clip-rule="evenodd" d="M0.387514 59.9643C11.0769 54.9128 18.4671 44.074 18.4671 31.5182C18.4671 18.9623 11.0769 8.12363 0.387512 3.07203C4.49726 1.12984 9.09467 0.0430908 13.9472 0.0430908C31.4212 0.0430908 45.5866 14.135 45.5866 31.5182C45.5866 48.9014 31.4212 62.9933 13.9472 62.9933C9.09467 62.9933 4.49726 61.9065 0.387514 59.9643Z" fill="white"/>
<path fill-rule="evenodd" clip-rule="evenodd" d="M0.387514 59.9643C11.0769 54.9128 18.4671 44.074 18.4671 31.5182C18.4671 18.9623 11.0769 8.12363 0.387512 3.07203C4.49726 1.12984 9.09467 0.0430908 13.9472 0.0430908C31.4212 0.0430908 45.5866 14.135 45.5866 31.5182C45.5866 48.9014 31.4212 62.9933 13.9472 62.9933C9.09467 62.9933 4.49726 61.9065 0.387514 59.9643Z" fill="url(#paint0_linear_0_66)" fill-opacity="0.3"/>
<path fill-rule="evenodd" clip-rule="evenodd" d="M0.387514 59.9643C11.0769 54.9128 18.4671 44.074 18.4671 31.5182C18.4671 18.9623 11.0769 8.12363 0.387512 3.07203C4.49726 1.12984 9.09467 0.0430908 13.9472 0.0430908C31.4212 0.0430908 45.5866 14.135 45.5866 31.5182C45.5866 48.9014 31.4212 62.9933 13.9472 62.9933C9.09467 62.9933 4.49726 61.9065 0.387514 59.9643Z" fill="#3F8AE9" fill-opacity="0.5" style="mix-blend-mode:color"/>
</g>
<defs>
<linearGradient id="paint0_linear_0_66" x1="0.387512" y1="0.0430908" x2="0.387512" y2="62.9933" gradientUnits="userSpaceOnUse">
<stop stop-color="white" stop-opacity="0.5"/>
<stop offset="1" stop-opacity="0.5"/>
</linearGradient>
<clipPath id="clip0_0_66">
<rect width="46" height="63" fill="white" transform="translate(0.218628 0.0430908)"/>
</clipPath>
</defs>
</svg>
