<svg width="63" height="48" viewBox="0 0 63 48" fill="none" xmlns="http://www.w3.org/2000/svg">
<g clip-path="url(#clip0_0_56)">
<path d="M0.0467529 3.91756C7.49353 0.439328 16.0573 -1.29979 24.2488 1.13497C29.0892 2.52627 33.1849 5.30885 38.0253 6.70015C46.2168 9.13491 54.7806 7.39579 62.2274 3.91756" stroke="#FBFBFB" stroke-width="4" stroke-linecap="round" stroke-linejoin="round"/>
<path opacity="0.7" d="M0.0467529 17.1217C7.49353 13.6435 16.0573 11.9044 24.2488 14.3391C29.0892 15.7304 33.1849 18.513 38.0253 19.9043C46.2168 22.3391 54.7806 20.6 62.2274 17.1217" stroke="#FBFBFB" stroke-width="4" stroke-linecap="round" stroke-linejoin="round"/>
<path opacity="0.4" d="M0.0467529 30.3259C7.49353 26.8477 16.0573 25.1085 24.2488 27.5433C29.0892 28.9346 33.1849 31.7172 38.0253 33.1085C46.2168 35.5432 54.7806 33.8041 62.2274 30.3259" stroke="#FBFBFB" stroke-width="4" stroke-linecap="round" stroke-linejoin="round"/>
<path opacity="0.2" d="M0.0467529 43.53C7.49353 40.0518 16.0573 38.3126 24.2488 40.7474C29.0892 42.1387 33.1849 44.9213 38.0253 46.3126C46.2168 48.7473 54.7806 47.0082 62.2274 43.53" stroke="#FBFBFB" stroke-width="4" stroke-linecap="round" stroke-linejoin="round"/>
</g>
<defs>
<clipPath id="clip0_0_56">
<rect width="63" height="48" fill="white"/>
</clipPath>
</defs>
</svg>
