<svg width="76" height="56" viewBox="0 0 76 56" fill="none" xmlns="http://www.w3.org/2000/svg">
<g clip-path="url(#clip0_0_75)">
<g clip-path="url(#clip1_0_75)">
<path fill-rule="evenodd" clip-rule="evenodd" d="M47.1114 48.299L38.312 54.8855L35.0604 44.3793L24.0743 44.5301L27.6126 34.1172L18.636 27.7749L27.6126 21.4326L24.0743 11.0196L35.0604 11.1705L38.312 0.664305L47.1114 7.25074L55.9108 0.664305L59.1623 11.1705L70.1485 11.0196L66.6102 21.4326L75.5868 27.7749L66.6102 34.1172L70.1485 44.5301L59.1623 44.3793L55.9108 54.8855L47.1114 48.299Z" fill="#FCC02E"/>
<path fill-rule="evenodd" clip-rule="evenodd" d="M47.1114 48.299L38.312 54.8855L35.0604 44.3793L24.0743 44.5301L27.6126 34.1172L18.636 27.7749L27.6126 21.4326L24.0743 11.0196L35.0604 11.1705L38.312 0.664305L47.1114 7.25074L55.9108 0.664305L59.1623 11.1705L70.1485 11.0196L66.6102 21.4326L75.5868 27.7749L66.6102 34.1172L70.1485 44.5301L59.1623 44.3793L55.9108 54.8855L47.1114 48.299Z" fill="url(#paint0_linear_0_75)" fill-opacity="0.3" style="mix-blend-mode:overlay"/>
<g filter="url(#filter0_d_0_75)">
<ellipse cx="47.1114" cy="27.7749" rx="15.4242" ry="15.4406" fill="#FEE6AC"/>
</g>
</g>
<g filter="url(#filter1_d_0_75)">
<path fill-rule="evenodd" clip-rule="evenodd" d="M41.1534 55.0927C46.3982 55.0927 50.6703 50.6954 50.6703 45.4696C50.6703 41.0724 47.7774 37.3976 43.7088 36.2001C43.6011 32.2813 40.3499 29.1532 36.3456 29.1532C35.1818 29.1532 34.0852 29.435 33.1062 29.9082C31.3746 25.8605 27.31 23.0239 22.5714 23.0239C17.4042 23.0239 13.0401 26.4057 11.6273 31.0429C5.51973 31.7697 0.838867 36.8198 0.838867 43.0323C0.838867 49.5412 5.91161 55.0927 12.6062 55.0927H41.1534Z" fill="white"/>
</g>
</g>
<defs>
<filter id="filter0_d_0_75" x="23.6872" y="8.33426" width="46.8483" height="46.8812" filterUnits="userSpaceOnUse" color-interpolation-filters="sRGB">
<feFlood flood-opacity="0" result="BackgroundImageFix"/>
<feColorMatrix in="SourceAlpha" type="matrix" values="0 0 0 0 0 0 0 0 0 0 0 0 0 0 0 0 0 0 127 0" result="hardAlpha"/>
<feOffset dy="4"/>
<feGaussianBlur stdDeviation="4"/>
<feColorMatrix type="matrix" values="0 0 0 0 0 0 0 0 0 0 0 0 0 0 0 0 0 0 0.1 0"/>
<feBlend mode="normal" in2="BackgroundImageFix" result="effect1_dropShadow_0_75"/>
<feBlend mode="normal" in="SourceGraphic" in2="effect1_dropShadow_0_75" result="shape"/>
</filter>
<filter id="filter1_d_0_75" x="-7.16113" y="19.0239" width="65.8315" height="48.0687" filterUnits="userSpaceOnUse" color-interpolation-filters="sRGB">
<feFlood flood-opacity="0" result="BackgroundImageFix"/>
<feColorMatrix in="SourceAlpha" type="matrix" values="0 0 0 0 0 0 0 0 0 0 0 0 0 0 0 0 0 0 127 0" result="hardAlpha"/>
<feOffset dy="4"/>
<feGaussianBlur stdDeviation="4"/>
<feColorMatrix type="matrix" values="0 0 0 0 0 0 0 0 0 0 0 0 0 0 0 0 0 0 0.14 0"/>
<feBlend mode="normal" in2="BackgroundImageFix" result="effect1_dropShadow_0_75"/>
<feBlend mode="normal" in="SourceGraphic" in2="effect1_dropShadow_0_75" result="shape"/>
</filter>
<linearGradient id="paint0_linear_0_75" x1="18.636" y1="-0.730865" x2="18.636" y2="53.4903" gradientUnits="userSpaceOnUse">
<stop stop-color="white" stop-opacity="0.5"/>
<stop offset="1" stop-opacity="0.5"/>
</linearGradient>
<clipPath id="clip0_0_75">
<rect width="75" height="55" fill="white" transform="translate(0.838867 0.315613)"/>
</clipPath>
<clipPath id="clip1_0_75">
<rect width="57" height="55" fill="white" transform="translate(18.636 0.315613)"/>
</clipPath>
</defs>
</svg>
