<svg width="95" height="63" viewBox="0 0 95 63" fill="none" xmlns="http://www.w3.org/2000/svg">
<g clip-path="url(#clip0_0_14)">
<path fill-rule="evenodd" clip-rule="evenodd" d="M49.3599 37.7502H84.3929C89.3581 37.2094 93.3123 33.0039 93.3123 27.851C93.3123 23.1836 90.0702 19.1377 85.7695 18.26C84.5917 8.53322 76.5078 0.930298 66.7029 0.930298C59.8072 0.930298 53.7629 4.61981 50.3715 10.2136C50.2876 10.2119 50.2043 10.1887 50.1199 10.1887C42.8488 10.1887 36.9547 16.5136 36.9547 23.9695C36.9547 31.1635 42.4426 37.2094 49.3599 37.7502Z" fill="#2D6CB5"/>
<path fill-rule="evenodd" clip-rule="evenodd" d="M49.3599 37.7502H84.3929C89.3581 37.2094 93.3123 33.0039 93.3123 27.851C93.3123 23.1836 90.0702 19.1377 85.7695 18.26C84.5917 8.53322 76.5078 0.930298 66.7029 0.930298C59.8072 0.930298 53.7629 4.61981 50.3715 10.2136C50.2876 10.2119 50.2043 10.1887 50.1199 10.1887C42.8488 10.1887 36.9547 16.5136 36.9547 23.9695C36.9547 31.1635 42.4426 37.2094 49.3599 37.7502Z" fill="url(#paint0_linear_0_14)" fill-opacity="0.2"/>
<g filter="url(#filter0_d_0_14)">
<path fill-rule="evenodd" clip-rule="evenodd" d="M16.7043 52.5967H56.8063C64.1739 52.5967 70.1753 46.4079 70.1753 39.0532C70.1753 32.8645 66.1114 27.6925 60.3961 26.0071C60.2447 20.4918 55.6776 16.0893 50.0524 16.0893C48.4176 16.0893 46.8772 16.4859 45.5019 17.1519C43.0694 11.4551 37.3596 7.46289 30.7029 7.46289C23.4443 7.46289 17.3138 12.2224 15.3291 18.7489C6.74944 19.7718 0.17395 26.8792 0.17395 35.6228C0.17395 44.7835 7.29994 52.5967 16.7043 52.5967Z" fill="white"/>
</g>
<path fill-rule="evenodd" clip-rule="evenodd" d="M31.7629 35.3748L26.8696 49.2469H34.5142L29.7286 62.6928L44.6668 43.5755L36.4343 43.3925L39.3008 35.559L31.7629 35.3748Z" fill="#FCC02E"/>
</g>
<defs>
<filter id="filter0_d_0_14" x="-9.82605" y="1.46289" width="90.0013" height="65.1338" filterUnits="userSpaceOnUse" color-interpolation-filters="sRGB">
<feFlood flood-opacity="0" result="BackgroundImageFix"/>
<feColorMatrix in="SourceAlpha" type="matrix" values="0 0 0 0 0 0 0 0 0 0 0 0 0 0 0 0 0 0 127 0" result="hardAlpha"/>
<feOffset dy="4"/>
<feGaussianBlur stdDeviation="5"/>
<feColorMatrix type="matrix" values="0 0 0 0 0 0 0 0 0 0 0 0 0 0 0 0 0 0 0.14 0"/>
<feBlend mode="normal" in2="BackgroundImageFix" result="effect1_dropShadow_0_14"/>
<feBlend mode="normal" in="SourceGraphic" in2="effect1_dropShadow_0_14" result="shape"/>
</filter>
<linearGradient id="paint0_linear_0_14" x1="36.9547" y1="0.930298" x2="36.9547" y2="37.7502" gradientUnits="userSpaceOnUse">
<stop stop-opacity="0.01"/>
<stop offset="1" stop-opacity="0.5"/>
</linearGradient>
<clipPath id="clip0_0_14">
<rect width="94" height="62" fill="white" transform="translate(0.17395 0.930298)"/>
</clipPath>
</defs>
</svg>
